<svg width="344" height="276" viewBox="0 0 344 276" fill="none" xmlns="http://www.w3.org/2000/svg">
<path d="M115.594 26.7646L115.573 32.5327C113.929 32.6721 112.166 32.9298 110.285 33.306C108.418 33.6822 106.586 34.1838 104.789 34.8107C102.991 35.4377 101.354 36.204 99.8775 37.1096C98.4006 38.0013 97.2233 39.0323 96.3455 40.2027C95.4678 41.373 95.0289 42.6966 95.0289 44.1735C95.0289 45.4692 95.426 46.563 96.2201 47.4546C97.0282 48.3463 98.101 49.0151 99.4386 49.461C100.776 49.9207 102.246 50.1506 103.848 50.1506C105.882 50.1506 107.805 49.9556 109.616 49.5654C111.428 49.1893 113.037 48.7365 114.444 48.207L116.283 54.2677C114.333 55.034 112.319 55.5844 110.243 55.9188C108.181 56.2671 106.161 56.4412 104.183 56.4412C102.148 56.4412 100.24 56.2183 98.4563 55.7725C96.6729 55.3266 95.0986 54.616 93.7332 53.6408C92.3817 52.6794 91.3158 51.4255 90.5356 49.8789C89.7693 48.3463 89.3862 46.4863 89.3862 44.2989C89.3862 42.2369 89.7693 40.3838 90.5356 38.7398C91.3158 37.0957 92.3608 35.6537 93.6705 34.4137C94.9801 33.1736 96.4431 32.1217 98.0593 31.2579C99.6894 30.3941 101.354 29.7044 103.054 29.1889C102.232 28.8406 101.508 28.548 100.881 28.3111C100.254 28.0603 99.7242 27.8723 99.2923 27.7469C98.8743 27.6075 98.5399 27.5379 98.2891 27.5379C97.5507 27.5379 96.8819 27.7747 96.2828 28.2484C95.6837 28.7082 95.2031 29.175 94.8408 29.6487L93.6287 31.1743L88.6756 28.75L89.7205 27.0363C90.7098 25.4062 91.9149 24.0408 93.3361 22.9401C94.7572 21.8394 96.4152 21.2891 98.31 21.2891C99.1042 21.2891 100.024 21.4702 101.069 21.8324C102.114 22.1947 103.242 22.6475 104.454 23.1909C105.666 23.7343 106.913 24.2776 108.195 24.821C109.477 25.3644 110.745 25.8242 111.999 26.2003C113.253 26.5626 114.451 26.7507 115.594 26.7646ZM136.284 37.1514C136.284 40.5092 135.664 43.2818 134.424 45.4692C133.184 47.6706 131.435 49.4052 129.178 50.6731C126.935 51.941 124.308 52.8605 121.299 53.4318L119.063 47.4128C120.916 47.0506 122.581 46.6048 124.058 46.0753C125.548 45.5598 126.788 44.9468 127.778 44.2362C128.767 43.5256 129.443 42.7315 129.805 41.8537C129.484 41.9094 129.164 41.9582 128.844 42C128.537 42.0279 128.251 42.0418 127.987 42.0418C125.326 42.0418 123.208 41.4497 121.633 40.2654C120.073 39.0672 119.293 37.0818 119.293 34.3092C119.293 33.1806 119.46 32.0242 119.794 30.8399C120.143 29.6556 120.651 28.5619 121.32 27.5588C122.003 26.5556 122.852 25.7475 123.87 25.1345C124.887 24.5075 126.064 24.194 127.401 24.194C128.934 24.194 130.258 24.5632 131.372 25.3017C132.487 26.0262 133.406 27.0154 134.131 28.2693C134.855 29.5093 135.392 30.8957 135.74 32.4282C136.102 33.9608 136.284 35.5352 136.284 37.1514ZM127.861 35.584C128.46 35.584 128.997 35.5561 129.47 35.5004C129.944 35.4307 130.313 35.368 130.578 35.3123C130.522 34.9083 130.425 34.4346 130.286 33.8912C130.146 33.3478 129.958 32.8184 129.721 32.3029C129.484 31.7734 129.171 31.3415 128.781 31.0071C128.405 30.6588 127.931 30.4846 127.36 30.4846C126.733 30.4846 126.238 30.7006 125.876 31.1325C125.528 31.5505 125.277 32.0381 125.123 32.5954C124.984 33.1527 124.915 33.6404 124.915 34.0584C124.915 34.755 125.207 35.1869 125.792 35.3541C126.377 35.5074 127.067 35.584 127.861 35.584ZM146.566 17.0884L150.474 20.9965L146.566 24.8837L142.679 20.9965L146.566 17.0884ZM154.299 42C153.755 42 153.219 41.9512 152.689 41.8537C152.16 41.7422 151.7 41.582 151.31 41.373C150.92 43.5605 150.147 45.4762 148.99 47.1203C147.834 48.7643 146.343 50.1088 144.518 51.1538C142.707 52.2127 140.61 52.972 138.227 53.4318L135.991 47.4128C137.955 46.9809 139.676 46.4376 141.153 45.7827C142.644 45.1279 143.8 44.2153 144.622 43.045C145.444 41.8885 145.855 40.342 145.855 38.4054C145.855 37.1236 145.639 35.6676 145.207 34.0375C144.789 32.3934 144.351 30.8887 143.891 29.5233L149.91 27.5588L151.143 32.3655C151.366 33.2154 151.686 33.9539 152.104 34.5808C152.522 35.2078 153.177 35.5213 154.069 35.5213H154.884V42H154.299ZM157.35 42H154.048V35.5213H157.392C158.381 35.5213 159.064 35.2078 159.44 34.5808C159.816 33.9539 160.004 33.1527 160.004 32.1775C160.004 31.23 159.886 30.1851 159.649 29.0426C159.412 27.9001 159.168 26.7855 158.917 25.6988L164.748 24.194C165.027 25.5455 165.243 26.883 165.396 28.2066C165.563 29.5302 165.647 30.7981 165.647 32.0103C165.647 33.9051 165.396 35.6049 164.894 37.1096C164.393 38.6144 163.536 39.8056 162.324 40.6834C161.126 41.5611 159.468 42 157.35 42ZM159.795 14.2461L163.703 18.1542L159.795 22.0414L155.908 18.1542L159.795 14.2461ZM194.09 9.66921L197.789 13.3474L194.09 17.0675L190.391 13.3474L194.09 9.66921ZM186.985 9.66921L190.726 13.3474L186.985 17.0675L183.327 13.3474L186.985 9.66921ZM200.485 42C199.19 42 198.04 41.8467 197.037 41.5402C196.034 41.2337 195.184 40.7391 194.487 40.0564C193.791 39.3737 193.24 38.4681 192.836 37.3395C192.014 37.9526 191.185 38.3984 190.349 38.6771C189.513 38.9557 188.629 39.095 187.695 39.095C185.313 39.095 183.334 38.4472 181.76 37.1514C180.185 35.8418 179.398 33.9051 179.398 31.3415C179.398 29.9343 179.719 28.6873 180.36 27.6006C181.001 26.5138 181.843 25.5664 182.888 24.7583C183.947 23.9363 185.104 23.2396 186.358 22.6684C187.626 22.0972 188.886 21.6234 190.14 21.2473L189.994 20.2441L195.386 19.1365L197.413 32.679C197.525 33.4453 197.838 34.1141 198.354 34.6853C198.869 35.2426 199.608 35.5213 200.569 35.5213H201.196V42H200.485ZM191.645 30.6309C191.645 30.4359 191.624 30.2129 191.582 29.9622C191.555 29.7114 191.513 29.4536 191.457 29.1889L191.123 27.2453C190.496 27.4543 189.841 27.6981 189.158 27.9768C188.475 28.2415 187.835 28.548 187.235 28.8963C186.65 29.2307 186.17 29.5929 185.793 29.9831C185.417 30.3732 185.229 30.7772 185.229 31.1952C185.229 31.7107 185.445 32.1357 185.877 32.47C186.323 32.7905 186.887 32.9507 187.57 32.9507C188.183 32.9507 188.803 32.8741 189.43 32.7208C190.057 32.5536 190.579 32.2959 190.997 31.9476C191.429 31.5993 191.645 31.1604 191.645 30.6309ZM205.125 31.8431V12.5951H211.165V31.8431C211.165 32.679 211.241 33.3687 211.395 33.9121C211.562 34.4555 211.854 34.8595 212.272 35.1242C212.704 35.3889 213.324 35.5213 214.132 35.5213H214.801V42H214.174C213.199 42 212.349 41.9025 211.625 41.7074C210.9 41.5124 210.252 41.2267 209.681 40.8506C209.124 40.4604 208.601 39.9798 208.114 39.4085C207.612 39.938 207.055 40.3977 206.442 40.7879C205.829 41.178 205.118 41.4775 204.31 41.6865C203.516 41.8955 202.589 42 201.53 42H200.36V35.5213H201.363C202.255 35.5213 202.972 35.4029 203.516 35.166C204.073 34.9152 204.477 34.5251 204.728 33.9957C204.993 33.4523 205.125 32.7348 205.125 31.8431ZM213.986 35.5213H217.539C218.835 35.5213 220.061 35.4377 221.217 35.2705C222.374 35.0894 223.53 34.8247 224.686 34.4764C225.843 34.1141 227.055 33.6613 228.323 33.1179C229.605 32.5606 231.005 31.9058 232.524 31.1534C231.437 30.7494 230.482 30.3871 229.66 30.0667C228.838 29.7462 228.121 29.4745 227.508 29.2516C226.909 29.0287 226.407 28.8545 226.003 28.7291C225.599 28.6037 225.279 28.541 225.042 28.541C224.303 28.541 223.635 28.7779 223.035 29.2516C222.436 29.7114 221.956 30.1781 221.593 30.6518L220.381 32.1775L215.428 29.7532L216.473 28.0395C217.462 26.4093 218.668 25.0439 220.089 23.9432C221.51 22.8426 223.168 22.2922 225.063 22.2922C225.857 22.2922 226.776 22.4733 227.821 22.8356C228.866 23.1978 229.995 23.6507 231.207 24.194C232.419 24.7374 233.659 25.2808 234.927 25.8242C236.209 26.3675 237.477 26.8273 238.731 27.2035C239.985 27.5657 241.183 27.7538 242.325 27.7678V33.6613C241.183 33.8145 240.152 34.0653 239.232 34.4137C238.313 34.748 237.372 35.173 236.411 35.6885C235.449 36.1901 234.342 36.7752 233.088 37.444C231.304 38.3914 229.612 39.2065 228.009 39.8892C226.421 40.5719 224.784 41.0944 223.098 41.4566C221.426 41.8189 219.552 42 217.476 42H213.986V35.5213ZM241.364 53.4318L239.065 47.4128C241.029 46.9809 242.75 46.4376 244.227 45.7827C245.718 45.1279 246.874 44.2153 247.696 43.045C248.518 41.8885 248.929 40.342 248.929 38.4054C248.929 37.1236 248.713 35.6676 248.281 34.0375C247.863 32.3934 247.425 30.8887 246.965 29.5233L253.005 27.5588C253.562 29.1192 253.987 30.8121 254.279 32.6372C254.572 34.4485 254.718 36.1901 254.718 37.862C254.718 40.8993 254.154 43.4769 253.026 45.5946C251.897 47.7263 250.33 49.4331 248.323 50.7149C246.317 51.9967 243.997 52.9023 241.364 53.4318Z" fill="#FA5F5F"/>
<path d="M152.836 129.417C152.836 136.277 151.909 142.145 150.056 147.021C148.203 151.93 145.245 155.685 141.181 158.286C137.117 160.887 131.769 162.187 125.137 162.187C118.733 162.187 113.353 161.017 108.996 158.676C104.64 156.368 101.357 153.003 99.146 148.582C96.9353 144.161 95.83 138.796 95.83 132.49C95.83 128.653 96.2852 124.655 97.1954 120.494C98.1057 116.332 99.3411 112.366 100.902 108.595L113.531 113.423C112.426 116.316 111.402 119.502 110.459 122.981C109.549 126.427 109.094 129.596 109.094 132.49C109.094 135.643 109.679 138.325 110.849 140.536C112.052 142.746 113.84 144.421 116.214 145.558C118.587 146.696 121.561 147.265 125.137 147.265C128.811 147.265 131.623 146.55 133.574 145.12C135.557 143.722 136.906 141.739 137.621 139.17C138.369 136.635 138.743 133.676 138.743 130.295V69.3885H152.836V129.417ZM165.856 69.3885H179.949V113.569C179.949 116.82 180.371 119.193 181.216 120.689C182.094 122.152 184.094 122.883 187.214 122.883H188.434V138H187.214C179.737 138 174.308 136.082 170.927 132.246C167.546 128.377 165.856 122.623 165.856 114.983V69.3885ZM186.434 122.883H188.775V138H186.434V122.883ZM196.48 143.413L205.599 152.532L196.48 161.602L187.41 152.532L196.48 143.413ZM200.625 103.572L213.596 102.012L214.62 116.446C214.718 117.974 215.026 119.226 215.547 120.201C216.067 121.144 216.847 121.826 217.887 122.249C218.96 122.672 220.342 122.883 222.032 122.883H223.056V138H221.935C219.822 138 217.887 137.74 216.132 137.22C214.376 136.667 212.8 135.936 211.402 135.025C210.036 134.115 208.833 133.075 207.793 131.904C205.81 133.757 203.469 135.237 200.771 136.342C198.073 137.447 195.196 138 192.14 138H187.458V122.883H192.14C195.618 122.883 197.991 122.347 199.259 121.274C200.527 120.168 201.161 118.039 201.161 114.886C201.161 112.935 201.112 111.017 201.015 109.131C200.917 107.213 200.787 105.36 200.625 103.572ZM223.3 162.357V156.652L245.049 147.777V153.482L223.3 162.357ZM228.811 138H221.106V122.883H228.908C231.216 122.883 232.809 122.152 233.687 120.689C234.565 119.226 235.004 117.356 235.004 115.081C235.004 112.87 234.727 110.432 234.175 107.766C233.622 105.1 233.053 102.5 232.468 99.9638L246.073 96.4527C246.723 99.6062 247.227 102.727 247.585 105.816C247.975 108.904 248.17 111.862 248.17 114.691C248.17 119.112 247.585 123.078 246.414 126.589C245.244 130.1 243.245 132.88 240.416 134.928C237.621 136.976 233.752 138 228.811 138ZM234.516 73.2409L243.635 82.3598L234.516 91.43L225.446 82.3598L234.516 73.2409ZM77.8847 248.065C70.7001 248.065 64.8159 246.667 60.232 243.871C55.6807 241.075 52.3159 237.32 50.1378 232.607C47.9596 227.893 46.8706 222.659 46.8706 216.904C46.8706 213.491 47.2119 209.98 47.8946 206.371C48.6098 202.73 49.6664 199.089 51.0643 195.448L63.6943 200.032C62.6865 202.795 61.8575 205.607 61.2073 208.468C60.5896 211.297 60.2808 214.011 60.2808 216.612C60.2808 219.668 60.8334 222.447 61.9388 224.951C63.0441 227.454 64.8809 229.437 67.4491 230.9C70.0174 232.395 73.4959 233.143 77.8847 233.143C83.1188 233.143 87.2637 232.607 90.3196 231.534C93.3755 230.493 95.5537 229.323 96.8541 228.023C98.187 226.755 98.8534 225.812 98.8534 225.194C98.8534 224.154 98.317 223.52 97.2442 223.293C96.2039 223.098 94.5621 223 92.319 223H84.5654C83.07 223 82.1435 222.659 81.7859 221.976C81.4283 221.261 81.0707 220.302 80.7131 219.099L78.4699 211.004C78.2423 210.061 78.1611 209.313 78.2261 208.761C78.2911 208.176 78.9738 207.883 80.2742 207.883H110.167V223H110.996C111.126 223.585 111.207 223.992 111.24 224.219C111.272 224.479 111.288 224.804 111.288 225.194C111.288 228.348 110.524 231.306 108.996 234.07C107.468 236.833 105.258 239.255 102.364 241.335C99.5036 243.449 96.0088 245.09 91.8801 246.261C87.7514 247.463 83.0863 248.065 77.8847 248.065ZM87.5401 253.429L96.1714 262.012L87.5401 270.692L78.9088 262.012L87.5401 253.429ZM70.9602 253.429L79.689 262.012L70.9602 270.692L62.4264 262.012L70.9602 253.429ZM167.709 223C164.848 223 162.393 222.415 160.345 221.244C158.33 220.042 156.623 218.627 155.225 217.002C153.6 218.595 151.747 219.993 149.666 221.196C147.585 222.399 145.098 223 142.205 223C138.987 223 136.239 222.464 133.964 221.391C131.721 220.285 129.868 218.855 128.405 217.1C126.552 218.888 124.39 220.318 121.919 221.391C119.448 222.464 116.376 223 112.702 223H108.216V207.883H112.8C115.108 207.883 116.945 207.753 118.31 207.493C119.708 207.2 120.716 206.566 121.334 205.591C121.984 204.583 122.309 203.007 122.309 200.861C122.309 200.373 122.277 199.479 122.212 198.179C122.147 196.846 122.049 195.416 121.919 193.888C121.821 192.327 121.724 190.978 121.626 189.84L134.646 188.231L135.719 201.983C135.882 204.031 136.483 205.526 137.524 206.469C138.596 207.412 140.189 207.883 142.302 207.883C144.871 207.883 146.577 207.395 147.423 206.42C148.268 205.445 148.691 203.592 148.691 200.861C148.691 200.406 148.658 199.528 148.593 198.228C148.528 196.895 148.431 195.448 148.301 193.888C148.203 192.327 148.105 190.978 148.008 189.84L161.028 188.231L162.101 201.983C162.231 203.868 162.702 205.331 163.515 206.371C164.328 207.379 165.693 207.883 167.611 207.883C168.879 207.883 169.854 207.607 170.537 207.054C171.252 206.501 171.74 205.705 172 204.665C172.293 203.592 172.439 202.324 172.439 200.861C172.439 199.691 172.358 197.903 172.195 195.497C172.065 193.091 171.919 190.897 171.756 188.914L184.776 187.304L185.849 201.983C186.012 204.258 186.646 205.819 187.751 206.664C188.856 207.477 190.612 207.883 193.017 207.883H194.48V223H193.115C190.189 223 187.572 222.496 185.264 221.488C182.988 220.481 181.135 219.164 179.705 217.538C178.404 219.034 176.746 220.318 174.731 221.391C172.748 222.464 170.407 223 167.709 223ZM192.579 223V207.883H200.332V206.761C200.332 203.706 200.673 200.455 201.356 197.009C202.039 193.53 203.144 190.263 204.672 187.207C206.2 184.119 208.232 181.615 210.768 179.697C213.303 177.747 216.424 176.771 220.13 176.771C223.349 176.771 226.096 177.552 228.372 179.112C230.647 180.64 232.387 182.721 233.589 185.354C234.825 187.955 235.442 190.881 235.442 194.131C235.442 197.155 234.874 200.146 233.736 203.104C232.63 206.03 231.102 208.793 229.152 211.394C227.234 213.962 225.039 216.238 222.569 218.221C220.13 220.172 217.562 221.667 214.864 222.707C215.156 223.488 215.563 224.317 216.083 225.194C216.636 226.072 217.237 226.934 217.887 227.779C218.57 228.657 219.253 229.421 219.935 230.071C220.781 227.535 222.016 224.967 223.641 222.366C225.267 219.765 227.136 217.376 229.249 215.198C231.363 212.987 233.573 211.215 235.881 209.882C238.222 208.549 240.481 207.883 242.66 207.883H244.269V223H242.562C240.449 223 238.71 223.26 237.344 223.78C235.979 224.333 234.906 225.129 234.126 226.17C233.346 227.243 232.793 228.559 232.468 230.12C232.143 231.68 231.98 233.484 231.98 235.532C231.98 236.378 231.996 237.239 232.029 238.117C232.094 239.027 232.159 239.954 232.224 240.897L223.203 249.235C220.114 247.772 217.042 245.643 213.986 242.847C210.963 240.051 208.313 236.914 206.038 233.436C203.762 229.99 202.201 226.511 201.356 223H192.579ZM219.497 191.303C218.326 191.303 217.335 191.856 216.522 192.961C215.742 194.066 215.108 195.448 214.62 197.106C214.132 198.764 213.775 200.471 213.547 202.226C213.352 203.982 213.255 205.494 213.255 206.761V207.883C215.108 207.688 216.814 207.005 218.375 205.835C219.935 204.632 221.187 203.12 222.13 201.3C223.073 199.447 223.544 197.48 223.544 195.399C223.544 194.164 223.17 193.172 222.422 192.425C221.707 191.677 220.732 191.303 219.497 191.303ZM242.318 207.883H245.927C249.243 207.883 251.323 207.152 252.169 205.689C253.014 204.226 253.437 201.869 253.437 198.618V154.388H267.529V200.032C267.529 207.607 265.839 213.328 262.458 217.197C259.077 221.066 253.55 223 245.878 223H242.318V207.883ZM294.642 154.388V222.951H280.55V154.388H294.642Z" fill="white"/>
</svg>
