<svg width="524" height="301" viewBox="0 0 524 301" fill="none" xmlns="http://www.w3.org/2000/svg">
<path d="M232.509 33C232.21 33 231.996 32.786 231.996 32.4864V16.1791C231.996 15.5371 231.61 15.1519 230.968 15.1519H224.163C223.863 15.1519 223.649 14.9379 223.649 14.6383V8.81732C223.649 8.51771 223.863 8.3037 224.163 8.3037H246.676C246.976 8.3037 247.19 8.51771 247.19 8.81732V14.6383C247.19 14.9379 246.976 15.1519 246.676 15.1519H239.871C239.229 15.1519 238.844 15.5371 238.844 16.1791V32.4864C238.844 32.786 238.63 33 238.33 33H232.509ZM250.479 33C250.18 33 249.965 32.786 249.965 32.4864V8.81732C249.965 8.51771 250.18 8.3037 250.479 8.3037H256.3C256.6 8.3037 256.814 8.51771 256.814 8.81732V16.1791C256.814 16.8211 257.199 17.2064 257.841 17.2064H266.53C267.172 17.2064 267.557 16.8211 267.557 16.1791V8.81732C267.557 8.51771 267.771 8.3037 268.07 8.3037H273.891C274.191 8.3037 274.405 8.51771 274.405 8.81732V32.4864C274.405 32.786 274.191 33 273.891 33H268.07C267.771 33 267.557 32.786 267.557 32.4864V25.0818C267.557 24.4398 267.172 24.0545 266.53 24.0545H257.841C257.199 24.0545 256.814 24.4398 256.814 25.0818V32.4864C256.814 32.786 256.6 33 256.3 33H250.479ZM278.776 33C278.348 33 278.263 32.786 278.263 32.4864V8.81732C278.263 8.51771 278.477 8.3037 278.776 8.3037H299.193C299.492 8.3037 299.706 8.51771 299.706 8.81732V14.6383C299.706 14.9379 299.492 15.1519 299.193 15.1519H285.625C285.325 15.1519 285.111 15.3659 285.111 15.6655V17.72C285.111 18.0196 285.325 18.2336 285.625 18.2336H295.212C295.512 18.2336 295.726 18.4476 295.726 18.7472V22.5137C295.726 22.8133 295.512 23.0273 295.212 23.0273H285.625C285.325 23.0273 285.111 23.2413 285.111 23.5409V25.6382C285.111 25.9378 285.325 26.1518 285.625 26.1518H299.193C299.492 26.1518 299.706 26.3658 299.706 26.6654V32.4864C299.706 32.786 299.492 33 299.193 33H278.776ZM17.1206 76C16.821 76 16.607 75.786 16.607 75.4864V51.8173C16.607 51.5177 16.821 51.3037 17.1206 51.3037H27.9493C35.7391 51.3037 40.8325 55.8834 40.8325 63.502C40.8325 71.1635 35.8247 76 27.6069 76H17.1206ZM23.4552 68.6382C23.4552 68.9378 23.6692 69.1518 23.9688 69.1518H28.0777C31.8014 69.1518 34.0699 67.0973 34.0699 63.6305C34.0699 60.2064 31.8014 58.1519 28.0777 58.1519H23.9688C23.6692 58.1519 23.4552 58.3659 23.4552 58.6655V68.6382ZM44.5451 76C44.2455 76 44.0315 75.786 44.0315 75.4864V51.8173C44.0315 51.5177 44.2455 51.3037 44.5451 51.3037H50.3661C50.6657 51.3037 50.8797 51.5177 50.8797 51.8173V75.4864C50.8797 75.786 50.6657 76 50.3661 76H44.5451ZM65.7645 76.5136C58.7451 76.5136 54.4222 73.3891 53.8658 67.9106V67.825C53.8658 67.5682 54.1226 67.3542 54.465 67.3542H60.5427C60.928 67.3542 61.142 67.4826 61.1848 67.7394C61.5272 69.3658 63.5388 70.4358 66.2353 70.4358C68.5466 70.4358 70.387 69.7082 70.4298 68.7666C70.4298 67.8678 69.745 67.6538 68.675 67.397L61.1848 65.6849C56.9902 64.7433 54.893 62.7316 54.893 58.8367C54.893 54.471 59.5583 50.7473 65.7217 50.7473C72.2703 50.7473 76.3364 53.829 76.8072 59.1791C76.8072 59.4787 76.5932 59.7355 76.2508 59.7355H70.1302C69.7878 59.7355 69.531 59.5643 69.4882 59.3503C69.1886 57.8951 67.5621 56.9535 65.2509 56.9535C63.4532 56.9535 61.8696 57.5099 61.8696 58.4515C61.8696 59.3503 62.5116 59.6499 63.5388 59.8639L71.0718 61.576C75.2664 62.5176 77.4064 64.5293 77.4064 68.253C77.4064 73.1751 72.3987 76.5136 65.7645 76.5136ZM80.9044 76C80.6048 76 80.3908 75.786 80.3908 75.4864V51.8173C80.3908 51.5177 80.6048 51.3037 80.9044 51.3037H92.7176C98.5813 51.3037 102.091 54.685 102.091 59.7355C102.091 64.4009 98.5813 67.6538 92.8032 67.6538H87.6242C87.3246 67.6538 87.1106 67.8678 87.1106 68.1674V75.4864C87.1106 75.786 86.8966 76 86.597 76H80.9044ZM87.1106 61.6616C87.1106 61.9612 87.3246 62.1752 87.6242 62.1752H92.5463C94.0872 62.1752 95.2856 61.5332 95.2856 59.8211C95.2856 58.4087 94.13 57.4671 92.5892 57.4671H87.6242C87.3246 57.4671 87.1106 57.6811 87.1106 57.9807V61.6616ZM105.607 76C105.307 76 105.093 75.786 105.093 75.4864V51.8173C105.093 51.5177 105.307 51.3037 105.607 51.3037H111.428C111.728 51.3037 111.942 51.5177 111.942 51.8173V68.1246C111.942 68.7238 112.37 69.1518 112.969 69.1518H124.996C125.296 69.1518 125.51 69.3658 125.51 69.6654V75.4864C125.51 75.786 125.296 76 124.996 76H105.607ZM128.015 76C127.544 76 127.287 75.572 127.458 75.144L136.874 51.7317C136.96 51.4749 137.26 51.3037 137.516 51.3037H145.221C145.477 51.3037 145.777 51.4749 145.863 51.7317L155.279 75.144C155.45 75.572 155.193 76 154.722 76H148.559C148.388 76 148.217 75.9144 148.131 75.7004L146.719 72.1479C146.633 71.8911 146.376 71.7199 146.077 71.7199H136.66C136.361 71.7199 136.104 71.8911 136.018 72.1479L134.606 75.7004C134.52 75.9144 134.349 76 134.178 76H128.015ZM138.715 65.4281C138.544 65.8561 138.843 66.2413 139.271 66.2413H143.466C143.894 66.2413 144.193 65.8561 144.022 65.4281L142.267 61.0196L141.839 59.3503C141.711 58.9223 141.026 58.9223 140.898 59.3503L140.47 61.0196L138.715 65.4281ZM168.486 76.4708C161.424 76.4708 155.774 70.8639 155.774 63.7161C155.774 56.6111 161.424 50.7473 168.658 50.7473C173.323 50.7473 177.731 53.187 179.529 56.7395C179.615 56.9963 179.529 57.2531 179.272 57.3815L174.265 59.8211C174.051 59.9495 173.794 59.8639 173.623 59.6499C172.595 58.3231 170.712 57.5099 168.7 57.5099C165.362 57.5099 162.665 60.2064 162.665 63.5448C162.665 66.8833 165.447 69.6226 168.914 69.6226C170.926 69.6226 172.681 68.8522 173.623 67.5254C173.794 67.3114 174.093 67.2258 174.307 67.3542L179.187 69.8366C179.443 69.965 179.572 70.179 179.486 70.3502C177.774 74.0739 173.451 76.4708 168.486 76.4708ZM183.101 76C182.673 76 182.587 75.786 182.587 75.4864V51.8173C182.587 51.5177 182.801 51.3037 183.101 51.3037H203.517C203.816 51.3037 204.03 51.5177 204.03 51.8173V57.6383C204.03 57.9379 203.816 58.1519 203.517 58.1519H189.949C189.649 58.1519 189.435 58.3659 189.435 58.6655V60.72C189.435 61.0196 189.649 61.2336 189.949 61.2336H199.536C199.836 61.2336 200.05 61.4476 200.05 61.7472V65.5137C200.05 65.8133 199.836 66.0273 199.536 66.0273H189.949C189.649 66.0273 189.435 66.2413 189.435 66.5409V68.6382C189.435 68.9378 189.649 69.1518 189.949 69.1518H203.517C203.816 69.1518 204.03 69.3658 204.03 69.6654V75.4864C204.03 75.786 203.816 76 203.517 76H183.101ZM207.97 76C207.671 76 207.457 75.786 207.457 75.4864V51.8173C207.457 51.5177 207.671 51.3037 207.97 51.3037H216.916C217.173 51.3037 217.43 51.4321 217.515 51.7317L221.367 62.9028L221.795 64.5293C221.881 64.9145 222.309 64.9145 222.394 64.5721L222.908 62.9028L226.546 51.7317C226.632 51.4321 226.889 51.3037 227.145 51.3037H235.663C235.962 51.3037 236.176 51.5177 236.176 51.8173V75.4864C236.176 75.786 235.962 76 235.663 76H229.842C229.542 76 229.328 75.786 229.328 75.4864V63.4164C229.328 63.0312 228.772 62.9884 228.686 63.3308L227.959 65.9845L224.577 75.572C224.492 75.8716 224.278 76 224.021 76H219.57C219.313 76 219.056 75.8716 218.97 75.572L215.675 66.1129L214.947 63.4592C214.819 63.074 214.305 63.1168 214.305 63.502V75.4864C214.305 75.786 214.091 76 213.791 76H207.97ZM240.531 76C240.103 76 240.018 75.786 240.018 75.4864V51.8173C240.018 51.5177 240.232 51.3037 240.531 51.3037H260.947C261.247 51.3037 261.461 51.5177 261.461 51.8173V57.6383C261.461 57.9379 261.247 58.1519 260.947 58.1519H247.379C247.08 58.1519 246.866 58.3659 246.866 58.6655V60.72C246.866 61.0196 247.08 61.2336 247.379 61.2336H256.967C257.266 61.2336 257.48 61.4476 257.48 61.7472V65.5137C257.48 65.8133 257.266 66.0273 256.967 66.0273H247.379C247.08 66.0273 246.866 66.2413 246.866 66.5409V68.6382C246.866 68.9378 247.08 69.1518 247.379 69.1518H260.947C261.247 69.1518 261.461 69.3658 261.461 69.6654V75.4864C261.461 75.786 261.247 76 260.947 76H240.531ZM265.401 76C265.101 76 264.887 75.786 264.887 75.4864V51.8173C264.887 51.5177 265.101 51.3037 265.401 51.3037H269.253C269.638 51.3037 269.895 51.3465 270.195 51.6461L281.451 62.9028C281.965 63.4164 282.736 63.1168 282.736 62.3892V51.8173C282.736 51.5177 282.95 51.3037 283.249 51.3037H289.07C289.37 51.3037 289.584 51.5177 289.584 51.8173V75.4864C289.584 75.786 289.37 76 289.07 76H285.261C284.876 76 284.576 75.8288 284.319 75.572L272.977 64.2725C272.463 63.7589 271.736 64.1013 271.736 64.8289V75.4864C271.736 75.786 271.522 76 271.222 76H265.401ZM301.225 76C300.926 76 300.712 75.786 300.712 75.4864V59.1791C300.712 58.5371 300.326 58.1519 299.684 58.1519H292.879C292.579 58.1519 292.365 57.9379 292.365 57.6383V51.8173C292.365 51.5177 292.579 51.3037 292.879 51.3037H315.392C315.692 51.3037 315.906 51.5177 315.906 51.8173V57.6383C315.906 57.9379 315.692 58.1519 315.392 58.1519H308.587C307.945 58.1519 307.56 58.5371 307.56 59.1791V75.4864C307.56 75.786 307.346 76 307.046 76H301.225ZM336.227 76.5136C330.192 76.5136 326.212 72.7471 326.212 65.9845V65.6421C326.212 65.3425 326.426 65.1285 326.725 65.1285H332.375C332.675 65.1285 332.889 65.3425 332.889 65.6421V65.9845C332.889 68.7666 334.216 69.7938 336.227 69.7938C338.367 69.7938 339.609 68.7666 339.609 65.8561V51.8173C339.609 51.5177 339.823 51.3037 340.122 51.3037H345.943C346.243 51.3037 346.457 51.5177 346.457 51.8173V65.9845C346.457 72.5331 342.305 76.5136 336.227 76.5136ZM362.184 76.5136C354.95 76.5136 349.258 70.8211 349.258 63.5876C349.258 56.397 354.95 50.7473 362.184 50.7473C369.417 50.7473 375.067 56.397 375.067 63.5876C375.067 70.8211 369.417 76.5136 362.184 76.5136ZM355.977 63.6305C355.977 67.0973 358.717 69.7938 362.184 69.7938C365.65 69.7938 368.347 67.0973 368.347 63.6305C368.347 60.1636 365.65 57.4671 362.184 57.4671C358.717 57.4671 355.977 60.1636 355.977 63.6305ZM389.847 76.5136C382.485 76.4708 377.862 71.4631 377.862 65.1713V51.8173C377.862 51.5177 378.077 51.3037 378.376 51.3037H384.197C384.497 51.3037 384.711 51.5177 384.711 51.8173V64.9573C384.711 67.9962 386.722 69.7938 389.847 69.7938C392.971 69.7938 394.983 67.9962 394.983 64.9573V51.8173C394.983 51.5177 395.197 51.3037 395.497 51.3037H401.318C401.617 51.3037 401.831 51.5177 401.831 51.8173V65.1713C401.831 71.4631 397.209 76.4708 389.847 76.5136ZM405.968 76C405.668 76 405.454 75.786 405.454 75.4864V51.8173C405.454 51.5177 405.668 51.3037 405.968 51.3037H420.135C425.314 51.3037 428.439 54.1714 428.439 58.4087C428.439 60.934 427.283 62.86 425.4 64.0157C425.014 64.2725 424.929 64.6149 425.271 64.9573L427.24 66.9689C427.54 67.2686 427.754 67.5254 427.754 67.9534V75.4864C427.754 75.786 427.54 76 427.24 76H421.419C421.119 76 420.905 75.786 420.905 75.4864L420.863 69.4514C420.863 68.9806 420.649 68.7238 420.392 68.467L419.921 67.9962C419.664 67.7394 419.365 67.6538 418.851 67.6538H412.816C412.516 67.6538 412.302 67.8678 412.302 68.1674V75.4864C412.302 75.786 412.088 76 411.789 76H405.968ZM412.302 61.576C412.302 61.8756 412.516 62.0896 412.816 62.0896H418.894C420.349 62.0896 421.462 61.4904 421.462 59.8211C421.462 58.2375 420.435 57.5099 418.894 57.5099H412.816C412.516 57.5099 412.302 57.7239 412.302 58.0235V61.576ZM432.175 76C431.876 76 431.662 75.786 431.662 75.4864V51.8173C431.662 51.5177 431.876 51.3037 432.175 51.3037H436.027C436.413 51.3037 436.669 51.3465 436.969 51.6461L448.226 62.9028C448.739 63.4164 449.51 63.1168 449.51 62.3892V51.8173C449.51 51.5177 449.724 51.3037 450.023 51.3037H455.844C456.144 51.3037 456.358 51.5177 456.358 51.8173V75.4864C456.358 75.786 456.144 76 455.844 76H452.035C451.65 76 451.35 75.8288 451.093 75.572L439.751 64.2725C439.237 63.7589 438.51 64.1013 438.51 64.8289V75.4864C438.51 75.786 438.296 76 437.996 76H432.175ZM460.723 76C460.295 76 460.21 75.786 460.21 75.4864V51.8173C460.21 51.5177 460.424 51.3037 460.723 51.3037H481.139C481.439 51.3037 481.653 51.5177 481.653 51.8173V57.6383C481.653 57.9379 481.439 58.1519 481.139 58.1519H467.571C467.272 58.1519 467.058 58.3659 467.058 58.6655V60.72C467.058 61.0196 467.272 61.2336 467.571 61.2336H477.159C477.459 61.2336 477.673 61.4476 477.673 61.7472V65.5137C477.673 65.8133 477.459 66.0273 477.159 66.0273H467.571C467.272 66.0273 467.058 66.2413 467.058 66.5409V68.6382C467.058 68.9378 467.272 69.1518 467.571 69.1518H481.139C481.439 69.1518 481.653 69.3658 481.653 69.6654V75.4864C481.653 75.786 481.439 76 481.139 76H460.723ZM493.34 76C493.041 76 492.827 75.786 492.827 75.4864V67.4826C492.827 66.8405 492.655 66.2413 492.313 65.7277L483.41 51.8173C483.282 51.6033 483.453 51.3037 483.71 51.3037H490.858C491.072 51.3037 491.329 51.4321 491.457 51.6461L495.694 58.8795C495.951 59.3503 496.55 59.3503 496.807 58.8795L501.002 51.6461C501.13 51.4321 501.387 51.3037 501.601 51.3037H508.749C509.005 51.3037 509.177 51.6033 509.048 51.8173L500.188 65.6849C499.846 66.1985 499.675 66.7977 499.675 67.4398V75.4864C499.675 75.786 499.461 76 499.161 76H493.34ZM250.102 119.514C242.869 119.514 237.176 113.821 237.176 106.588C237.176 99.397 242.869 93.7473 250.102 93.7473C257.336 93.7473 262.985 99.397 262.985 106.588C262.985 113.821 257.336 119.514 250.102 119.514ZM243.896 106.63C243.896 110.097 246.635 112.794 250.102 112.794C253.569 112.794 256.265 110.097 256.265 106.63C256.265 103.164 253.569 100.467 250.102 100.467C246.635 100.467 243.896 103.164 243.896 106.63ZM266.509 119C266.209 119 265.995 118.786 265.995 118.486V94.8173C265.995 94.5177 266.209 94.3037 266.509 94.3037H286.54C286.839 94.3037 287.053 94.5177 287.053 94.8173V100.638C287.053 100.938 286.839 101.152 286.54 101.152H273.357C273.057 101.152 272.843 101.366 272.843 101.666V104.833C272.843 105.132 273.057 105.218 273.357 105.218H281.446C281.746 105.218 281.96 105.432 281.96 105.732V110.183C281.96 110.483 281.746 110.697 281.446 110.697H273.357C273.057 110.697 272.843 110.911 272.843 111.21V118.486C272.843 118.786 272.629 119 272.33 119H266.509Z" fill="#FA5F5F"/>
<path d="M131.055 206.534C130.356 206.534 129.856 206.035 129.856 205.336V150.108C129.856 149.409 130.356 148.909 131.055 148.909H140.043C140.942 148.909 141.541 149.009 142.24 149.708L168.506 175.974C169.704 177.173 171.502 176.473 171.502 174.776V150.108C171.502 149.409 172.001 148.909 172.7 148.909H186.283C186.982 148.909 187.481 149.409 187.481 150.108V205.336C187.481 206.035 186.982 206.534 186.283 206.534H177.394C176.495 206.534 175.796 206.135 175.197 205.535L148.732 179.17C147.533 177.972 145.835 178.77 145.835 180.468V205.336C145.835 206.035 145.336 206.534 144.637 206.534H131.055ZM198.166 206.534C197.467 206.534 196.968 206.035 196.968 205.336V150.108C196.968 149.409 197.467 148.909 198.166 148.909H211.748C212.448 148.909 212.947 149.409 212.947 150.108V205.336C212.947 206.035 212.448 206.534 211.748 206.534H198.166ZM223.61 206.534C222.91 206.534 222.411 206.035 222.411 205.336V150.108C222.411 149.409 222.91 148.909 223.61 148.909H257.266C269.45 148.909 276.141 154.402 276.141 164.19C276.141 169.582 273.944 173.577 269.849 175.974C268.151 176.873 268.151 178.071 269.949 178.87C274.443 181.067 276.341 185.462 276.341 190.355C276.341 200.043 269.849 206.534 257.665 206.534H223.61ZM238.39 190.855C238.39 191.554 238.89 192.053 239.589 192.053H255.168C258.364 192.053 260.761 190.355 260.761 187.459C260.761 184.763 258.364 183.065 255.168 183.065H239.589C238.89 183.065 238.39 183.564 238.39 184.163V190.855ZM238.39 170.881C238.39 171.58 238.89 172.079 239.589 172.079H254.969C258.164 172.079 260.262 170.581 260.262 167.785C260.262 165.088 258.164 163.391 254.969 163.391H239.589C238.89 163.391 238.39 163.89 238.39 164.589V170.881ZM280.282 206.534C279.184 206.534 278.585 205.535 278.984 204.537L300.955 149.908C301.155 149.309 301.854 148.909 302.453 148.909H320.43C321.029 148.909 321.728 149.309 321.928 149.908L343.899 204.537C344.299 205.535 343.699 206.534 342.601 206.534H328.22C327.82 206.534 327.421 206.334 327.221 205.835L323.925 197.546C323.726 196.947 323.126 196.547 322.427 196.547H300.456C299.757 196.547 299.158 196.947 298.958 197.546L295.662 205.835C295.463 206.334 295.063 206.534 294.664 206.534H280.282ZM305.25 181.866C304.85 182.865 305.549 183.764 306.548 183.764H316.335C317.334 183.764 318.033 182.865 317.634 181.866L313.539 171.58L312.54 167.685C312.241 166.686 310.643 166.686 310.343 167.685L309.344 171.58L305.25 181.866ZM350.202 206.534C349.503 206.534 349.003 206.035 349.003 205.336V150.108C349.003 149.409 349.503 148.909 350.202 148.909H363.784C364.483 148.909 364.983 149.409 364.983 150.108V188.158C364.983 189.556 365.981 190.555 367.379 190.555H395.443C396.142 190.555 396.641 191.054 396.641 191.753V205.336C396.641 206.035 396.142 206.534 395.443 206.534H350.202ZM99.2689 292.534C98.1704 292.534 97.5712 291.535 97.9706 290.537L119.942 235.908C120.142 235.309 120.841 234.909 121.44 234.909H139.416C140.016 234.909 140.715 235.309 140.915 235.908L162.886 290.537C163.285 291.535 162.686 292.534 161.587 292.534H147.206C146.807 292.534 146.407 292.334 146.208 291.835L142.912 283.546C142.712 282.947 142.113 282.547 141.414 282.547H119.443C118.743 282.547 118.144 282.947 117.945 283.546L114.649 291.835C114.449 292.334 114.05 292.534 113.65 292.534H99.2689ZM124.236 267.866C123.837 268.865 124.536 269.764 125.535 269.764H135.322C136.321 269.764 137.02 268.865 136.62 267.866L132.525 257.58L131.527 253.685C131.227 252.686 129.629 252.686 129.33 253.685L128.331 257.58L124.236 267.866ZM169.188 292.534C168.489 292.534 167.99 292.035 167.99 291.336V236.108C167.99 235.409 168.489 234.909 169.188 234.909H182.771C183.47 234.909 183.969 235.409 183.969 236.108V274.158C183.969 275.556 184.968 276.555 186.366 276.555H214.429C215.128 276.555 215.628 277.054 215.628 277.753V291.336C215.628 292.035 215.128 292.534 214.429 292.534H169.188ZM215.866 270.363C215.167 270.363 214.667 269.864 214.667 269.165V258.279C214.667 257.58 215.167 257.081 215.866 257.081H241.133C241.832 257.081 242.331 257.58 242.331 258.279V269.165C242.331 269.864 241.832 270.363 241.133 270.363H215.866ZM255.014 292.534C254.315 292.534 253.815 292.035 253.815 291.336V236.108C253.815 235.409 254.315 234.909 255.014 234.909H268.596C269.295 234.909 269.795 235.409 269.795 236.108V253.285C269.795 254.784 270.693 255.682 272.191 255.682H292.465C293.963 255.682 294.862 254.784 294.862 253.285V236.108C294.862 235.409 295.361 234.909 296.06 234.909H309.642C310.342 234.909 310.841 235.409 310.841 236.108V291.336C310.841 292.035 310.342 292.534 309.642 292.534H296.06C295.361 292.534 294.862 292.035 294.862 291.336V274.058C294.862 272.56 293.963 271.661 292.465 271.661H272.191C270.693 271.661 269.795 272.56 269.795 274.058V291.336C269.795 292.035 269.295 292.534 268.596 292.534H255.014ZM321.54 292.534C320.841 292.534 320.342 292.035 320.342 291.336V236.108C320.342 235.409 320.841 234.909 321.54 234.909H335.122C335.821 234.909 336.321 235.409 336.321 236.108V291.336C336.321 292.035 335.821 292.534 335.122 292.534H321.54ZM371.052 293.733C354.673 293.733 344.587 286.442 343.288 273.659V273.459C343.288 272.86 343.888 272.361 344.686 272.361H358.868C359.767 272.361 360.266 272.66 360.366 273.259C361.165 277.054 365.859 279.551 372.151 279.551C377.544 279.551 381.838 277.853 381.938 275.656C381.938 273.559 380.34 273.06 377.843 272.46L360.366 268.466C350.579 266.269 345.685 261.575 345.685 252.487C345.685 242.3 356.571 233.611 370.952 233.611C386.232 233.611 395.72 240.802 396.818 253.285C396.818 253.985 396.319 254.584 395.52 254.584H381.239C380.44 254.584 379.841 254.184 379.741 253.685C379.042 250.289 375.247 248.092 369.854 248.092C365.659 248.092 361.964 249.391 361.964 251.588C361.964 253.685 363.462 254.384 365.859 254.883L383.436 258.878C393.223 261.075 398.217 265.769 398.217 274.458C398.217 285.943 386.532 293.733 371.052 293.733ZM406.878 292.534C406.179 292.534 405.679 292.035 405.679 291.336V236.108C405.679 235.409 406.179 234.909 406.878 234.909H420.46C421.159 234.909 421.659 235.409 421.659 236.108V291.336C421.659 292.035 421.159 292.534 420.46 292.534H406.878Z" fill="white"/>
</svg>
