<svg width="364" height="215" viewBox="0 0 364 215" fill="none" xmlns="http://www.w3.org/2000/svg">
<path d="M40.433 33C40.0906 33 39.8338 32.7004 39.9622 32.3152L45.7404 16.7355C46.04 15.9223 45.5692 15.1519 44.6275 15.1519H31.402C31.1024 15.1519 30.8883 14.9379 30.8883 14.6383V5.86404C30.8883 5.56443 31.1024 5.35042 31.402 5.35042H37.2229C37.5225 5.35042 37.7365 5.56443 37.7365 5.86404V7.27648C37.7365 7.87569 38.1646 8.3037 38.7638 8.3037H53.787C54.0866 8.3037 54.3006 8.51771 54.3006 8.81732V13.0118C54.3006 13.3114 54.2578 13.5683 54.1722 13.7823L47.1528 32.7004C47.0672 32.9144 46.8532 33 46.682 33H40.433ZM58.1708 33C57.8712 33 57.6572 32.8288 57.6572 32.4864V8.81732C57.6572 8.51771 57.8712 8.3037 58.1708 8.3037H63.9917C64.2913 8.3037 64.5054 8.51771 64.5054 8.81732V25.6382C64.5054 25.9378 64.7194 26.1518 65.019 26.1518H66.6882C67.7154 26.1518 68.4003 25.467 68.4003 24.4398V8.81732C68.4003 8.51771 68.6143 8.3037 68.9139 8.3037H74.7348C75.0344 8.3037 75.2485 8.51771 75.2485 8.81732V25.7238C75.2485 25.9806 75.4625 26.1946 75.7193 26.1946H76.3185C76.6609 26.1946 76.9605 26.0234 77.1745 25.8094L78.9294 24.0545C79.0578 23.9261 79.1434 23.6693 79.1434 23.4981V8.81732C79.1434 8.51771 79.3574 8.3037 79.657 8.3037H85.4779C85.7776 8.3037 85.9916 8.51771 85.9916 8.81732V25.5098C85.9916 25.895 85.8632 26.323 85.5635 26.6226L79.8282 32.4008C79.443 32.786 79.015 33 78.5013 33H58.1708ZM117.299 33C117 33 116.786 32.786 116.786 32.4864V16.5215C116.786 15.7083 116.229 15.1519 115.416 15.1519H99.8792C99.5796 15.1519 99.3656 14.9379 99.3656 14.6383V8.81732C99.3656 8.51771 99.5796 8.3037 99.8792 8.3037H122.607C123.206 8.3037 123.634 8.73172 123.634 9.33093V32.4864C123.634 32.786 123.42 33 123.12 33H117.299ZM100.222 32.4864V21.2297C100.222 20.9301 100.436 20.7161 100.735 20.7161H106.556C106.856 20.7161 107.07 20.9301 107.07 21.2297V32.4864C107.07 32.786 106.856 33 106.556 33H100.735C100.436 33 100.222 32.786 100.222 32.4864ZM142.522 33C142.222 33 142.008 32.786 142.008 32.4864V16.5215C142.008 15.7083 141.452 15.1519 140.639 15.1519H127.37C127.071 15.1519 126.857 14.9379 126.857 14.6383V8.81732C126.857 8.51771 127.071 8.3037 127.37 8.3037H147.829C148.428 8.3037 148.856 8.73172 148.856 9.33093V32.4864C148.856 32.786 148.642 33 148.343 33H142.522ZM153.088 20.7161C152.789 20.7161 152.575 20.502 152.575 20.2024V8.81732C152.575 8.51771 152.789 8.3037 153.088 8.3037H158.995C159.294 8.3037 159.508 8.51771 159.508 8.81732V20.2024C159.508 20.502 159.294 20.7161 158.995 20.7161H153.088ZM164.9 37.6225C164.601 37.6225 164.387 37.4085 164.387 37.1089V19.6888C164.387 19.3892 164.601 19.1752 164.9 19.1752H170.721C171.021 19.1752 171.235 19.3892 171.235 19.6888V28.6771C171.235 29.5759 172.476 29.8327 173.032 29.1051L179.923 19.9884C180.18 19.6888 180.18 19.3892 180.18 19.0468V16.5643C180.18 15.7511 179.581 15.1519 178.768 15.1519H163.317C163.017 15.1519 162.803 14.9379 162.803 14.6383V8.81732C162.803 8.51771 163.017 8.3037 163.317 8.3037H186.044C186.643 8.3037 187.071 8.73172 187.071 9.33093V21.2297C187.071 21.7005 186.9 22.1285 186.6 22.5565L179.025 32.572C178.853 32.8288 178.554 33 178.254 33H172.647C171.834 33 171.235 33.5992 171.235 34.4124V37.1089C171.235 37.4085 171.021 37.6225 170.721 37.6225H164.9ZM189.504 33C189.204 33 188.99 32.786 188.99 32.4864V26.6654C188.99 26.3658 189.204 26.1518 189.504 26.1518H191.815C192.628 26.1518 193.185 25.5954 193.185 24.7822V8.81732C193.185 8.51771 193.399 8.3037 193.698 8.3037H199.519C199.819 8.3037 200.033 8.51771 200.033 8.81732V25.6382C200.033 25.9378 200.247 26.1518 200.547 26.1518H202.986C203.5 26.1518 203.928 25.9378 204.313 25.5526L205.811 24.0545C206.111 23.7549 206.239 23.3269 206.239 22.9417V8.81732C206.239 8.51771 206.453 8.3037 206.753 8.3037H212.574C212.873 8.3037 213.087 8.51771 213.087 8.81732V25.9806C213.087 26.323 213.002 26.6226 212.745 26.8794L207.181 32.4864C206.881 32.786 206.539 33 206.111 33H189.504ZM234.626 33C234.327 33 234.113 32.786 234.113 32.4864V16.5215C234.113 15.7083 233.556 15.1519 232.743 15.1519H217.206C216.907 15.1519 216.693 14.9379 216.693 14.6383V8.81732C216.693 8.51771 216.907 8.3037 217.206 8.3037H239.934C240.533 8.3037 240.961 8.73172 240.961 9.33093V32.4864C240.961 32.786 240.747 33 240.447 33H234.626ZM217.549 32.4864V21.2297C217.549 20.9301 217.763 20.7161 218.062 20.7161H223.883C224.183 20.7161 224.397 20.9301 224.397 21.2297V32.4864C224.397 32.786 224.183 33 223.883 33H218.062C217.763 33 217.549 32.786 217.549 32.4864ZM253.706 33C253.406 33 253.192 32.786 253.192 32.4864V26.6654C253.192 26.3658 253.406 26.1518 253.706 26.1518H256.017C256.83 26.1518 257.387 25.5954 257.387 24.7822V8.81732C257.387 8.51771 257.601 8.3037 257.9 8.3037H263.721C264.021 8.3037 264.235 8.51771 264.235 8.81732V25.6382C264.235 25.9378 264.449 26.1518 264.748 26.1518H267.188C267.702 26.1518 268.13 25.9378 268.515 25.5526L270.013 24.0545C270.313 23.7549 270.441 23.3269 270.441 22.9417V8.81732C270.441 8.51771 270.655 8.3037 270.955 8.3037H276.776C277.075 8.3037 277.289 8.51771 277.289 8.81732V25.9806C277.289 26.323 277.204 26.6226 276.947 26.8794L271.383 32.4864C271.083 32.786 270.741 33 270.313 33H253.706ZM281.537 33C281.237 33 281.023 32.786 281.023 32.4864V8.81732C281.023 8.51771 281.237 8.3037 281.537 8.3037H304.478C305.077 8.3037 305.505 8.73172 305.505 9.33093L305.462 21.5721C305.462 22.9845 305.077 23.7977 304.221 24.6538L296.902 32.0156C296.217 32.7004 295.533 33 294.719 33H281.537ZM287.871 25.681C287.871 25.9806 288.085 26.1946 288.385 26.1946H291.937C292.536 26.1946 293.178 25.895 293.692 25.3814L298.101 20.9301C298.443 20.5448 298.614 19.9884 298.614 19.4748V16.5215C298.614 15.7083 298.058 15.1519 297.245 15.1519H288.385C288.085 15.1519 287.871 15.3659 287.871 15.6655V25.681ZM307.741 33C307.355 33 307.099 32.572 307.313 32.1868L313.904 20.3308C314.289 19.646 313.861 18.8756 313.091 18.8756H309.41C309.11 18.8756 308.896 18.6616 308.896 18.362V8.81732C308.896 8.51771 309.11 8.3037 309.41 8.3037H315.231C315.53 8.3037 315.744 8.51771 315.744 8.81732V14.5527C315.744 15.1947 316.643 15.5799 317.028 14.8523L320.281 8.90292C320.495 8.51771 320.838 8.3037 321.351 8.3037H331.452C332.052 8.3037 332.48 8.73172 332.48 9.33093V32.4864C332.48 32.786 332.266 33 331.966 33H320.495C320.196 33 319.982 32.786 319.982 32.4864V26.6654C319.982 26.3658 320.196 26.1518 320.495 26.1518H324.262C325.075 26.1518 325.631 25.5954 325.631 24.7822V16.4787C325.631 15.6227 324.561 15.4515 324.176 16.1363L314.931 32.7432C314.846 32.9144 314.674 33 314.503 33H307.741Z" fill="#FA5F5F"/>
<path d="M88.1843 120.534C87.3854 120.534 86.7862 119.835 87.0858 118.936L100.568 82.5838C101.267 80.6863 100.169 78.8886 97.9715 78.8886H67.1119C66.4128 78.8886 65.9134 78.3893 65.9134 77.6902V57.2169C65.9134 56.5178 66.4128 56.0185 67.1119 56.0185H80.6941C81.3932 56.0185 81.8926 56.5178 81.8926 57.2169V60.5126C81.8926 61.9108 82.8912 62.9095 84.2894 62.9095H119.344C120.043 62.9095 120.542 63.4088 120.542 64.1079V73.8951C120.542 74.5942 120.442 75.1934 120.242 75.6928L103.864 119.835C103.664 120.334 103.165 120.534 102.765 120.534H88.1843ZM127.299 120.534C126.6 120.534 126.1 120.035 126.1 119.336V100.76C126.1 100.061 126.4 99.3618 126.899 98.8625L139.183 86.4787C139.882 85.7796 139.783 84.8808 139.383 84.1817L126.7 64.5074C126.3 63.8083 126.7 62.9095 127.499 62.9095H143.578C144.177 62.9095 144.676 63.1092 145.076 63.7084L156.86 82.0844C157.759 83.4826 159.357 83.7822 160.655 82.4839L164.35 78.7887C164.75 78.3893 164.95 77.8899 164.95 77.3906V64.1079C164.95 63.4088 165.449 62.9095 166.148 62.9095H179.73C180.429 62.9095 180.929 63.4088 180.929 64.1079V82.6836C180.929 83.3827 180.629 84.0818 180.13 84.5812L167.946 96.8651C167.346 97.5642 167.247 98.463 167.746 99.1621L180.429 118.936C180.829 119.635 180.429 120.534 179.63 120.534H162.553L150.169 101.259C149.27 99.8612 147.572 99.6615 146.374 100.86L142.579 104.655C142.279 104.955 142.08 105.554 142.08 106.053V119.336C142.08 120.035 141.58 120.534 140.881 120.534H127.299ZM188.832 120.534C188.133 120.534 187.634 120.035 187.634 119.336V105.753C187.634 105.054 188.133 104.555 188.832 104.555H219.193C219.892 104.555 220.391 104.056 220.391 103.357V82.0844C220.391 80.1869 219.093 78.8886 217.195 78.8886H189.332C188.633 78.8886 188.133 78.3893 188.133 77.6902V64.1079C188.133 63.4088 188.633 62.9095 189.332 62.9095H233.973C235.372 62.9095 236.37 63.9082 236.37 65.3064V100.56C236.37 102.757 238.168 104.555 240.365 104.555H242.862C243.561 104.555 244.06 105.054 244.06 105.753V119.336C244.06 120.035 243.561 120.534 242.862 120.534H188.832ZM246.886 91.8716C246.186 91.8716 245.687 91.3723 245.687 90.6732V64.1079C245.687 63.4088 246.186 62.9095 246.886 62.9095H260.667C261.367 62.9095 261.866 63.4088 261.866 64.1079V90.6732C261.866 91.3723 261.367 91.8716 260.667 91.8716H246.886ZM270.264 120.534C269.565 120.534 269.066 120.035 269.066 119.336V105.753C269.066 105.054 269.565 104.555 270.264 104.555H277.455C279.352 104.555 280.651 103.257 280.651 101.359V82.0844C280.651 80.1869 279.352 78.8886 277.455 78.8886H271.263C270.564 78.8886 270.065 78.3893 270.065 77.6902V64.1079C270.065 63.4088 270.564 62.9095 271.263 62.9095H295.431C296.131 62.9095 296.63 63.4088 296.63 64.1079V119.336C296.63 120.035 296.131 120.534 295.431 120.534H270.264ZM15.7423 177.872C15.0432 177.872 14.5439 177.372 14.5439 176.673V150.108C14.5439 149.409 15.0432 148.909 15.7423 148.909H29.5243C30.2234 148.909 30.7227 149.409 30.7227 150.108V176.673C30.7227 177.372 30.2234 177.872 29.5243 177.872H15.7423ZM40.6191 206.534C39.9201 206.534 39.4207 206.035 39.4207 205.336V150.108C39.4207 149.409 39.9201 148.909 40.6191 148.909H94.1492C95.5474 148.909 96.5461 149.908 96.5461 151.306L96.4462 179.869C96.4462 183.165 95.5474 185.062 93.55 187.06L76.4723 204.237C74.8744 205.835 73.2765 206.534 71.3789 206.534H40.6191ZM55.3998 189.456C55.3998 190.156 55.8992 190.655 56.5983 190.655H64.8874C66.2856 190.655 67.7836 189.956 68.9821 188.757L79.2686 178.371C80.0676 177.472 80.4671 176.174 80.4671 174.975V168.084C80.4671 166.187 79.1688 164.889 77.2712 164.889H56.5983C55.8992 164.889 55.3998 165.388 55.3998 166.087V189.456ZM105.956 177.872C105.257 177.872 104.758 177.372 104.758 176.673V150.108C104.758 149.409 105.257 148.909 105.956 148.909H119.738C120.437 148.909 120.937 149.409 120.937 150.108V176.673C120.937 177.372 120.437 177.872 119.738 177.872H105.956ZM171.181 206.534C170.481 206.534 169.982 206.035 169.982 205.336V168.084C169.982 166.187 168.684 164.889 166.786 164.889H130.534C129.835 164.889 129.335 164.389 129.335 163.69V150.108C129.335 149.409 129.835 148.909 130.534 148.909H183.564C184.963 148.909 185.961 149.908 185.961 151.306V205.336C185.961 206.035 185.462 206.534 184.763 206.534H171.181ZM131.333 205.336V179.07C131.333 178.371 131.832 177.872 132.531 177.872H146.113C146.812 177.872 147.312 178.371 147.312 179.07V205.336C147.312 206.035 146.812 206.534 146.113 206.534H132.531C131.832 206.534 131.333 206.035 131.333 205.336ZM198.674 184.363C197.975 184.363 197.476 183.864 197.476 183.165V172.279C197.476 171.58 197.975 171.081 198.674 171.081H223.941C224.64 171.081 225.14 171.58 225.14 172.279V183.165C225.14 183.864 224.64 184.363 223.941 184.363H198.674ZM257.397 206.534C256.598 206.534 255.999 205.835 256.298 204.936L269.781 168.584C270.48 166.686 269.381 164.889 267.184 164.889H236.324C235.625 164.889 235.126 164.389 235.126 163.69V143.217C235.126 142.518 235.625 142.018 236.324 142.018H249.907C250.606 142.018 251.105 142.518 251.105 143.217V146.513C251.105 147.911 252.104 148.909 253.502 148.909H288.556C289.255 148.909 289.754 149.409 289.754 150.108V159.895C289.754 160.594 289.655 161.193 289.455 161.693L273.076 205.835C272.877 206.334 272.377 206.534 271.978 206.534H257.397ZM296.511 206.534C295.812 206.534 295.313 206.035 295.313 205.336V186.76C295.313 186.061 295.612 185.362 296.112 184.863L308.396 172.479C309.095 171.78 308.995 170.881 308.595 170.182L295.912 150.507C295.513 149.808 295.912 148.909 296.711 148.909H312.79C313.389 148.909 313.889 149.109 314.288 149.708L326.073 168.084C326.971 169.483 328.569 169.782 329.868 168.484L333.563 164.789C333.962 164.389 334.162 163.89 334.162 163.391V150.108C334.162 149.409 334.661 148.909 335.361 148.909H348.943C349.642 148.909 350.141 149.409 350.141 150.108V168.684C350.141 169.383 349.842 170.082 349.342 170.581L337.158 182.865C336.559 183.564 336.459 184.463 336.958 185.162L349.642 204.936C350.041 205.635 349.642 206.534 348.843 206.534H331.765L319.381 187.259C318.483 185.861 316.785 185.661 315.586 186.86L311.791 190.655C311.492 190.955 311.292 191.554 311.292 192.053V205.336C311.292 206.035 310.793 206.534 310.094 206.534H296.511Z" fill="white"/>
</svg>
